<?xml version="1.0" encoding="UTF-8" standalone="no"?>
<!-- Created with Inkscape (http://www.inkscape.org/) -->

<svg
   xmlns:dc="http://purl.org/dc/elements/1.1/"
   xmlns:cc="http://creativecommons.org/ns#"
   xmlns:rdf="http://www.w3.org/1999/02/22-rdf-syntax-ns#"
   xmlns:svg="http://www.w3.org/2000/svg"
   xmlns="http://www.w3.org/2000/svg"
   xmlns:sodipodi="http://sodipodi.sourceforge.net/DTD/sodipodi-0.dtd"
   xmlns:inkscape="http://www.inkscape.org/namespaces/inkscape"
   width="68.969101mm"
   height="68.953049mm"
   viewBox="0 0 68.969101 68.953049"
   version="1.1"
   id="svg1727"
   sodipodi:docname="discord.svg"
   inkscape:version="0.92.5 (2060ec1f9f, 2020-04-08)">
  <defs
     id="defs1721" />
  <sodipodi:namedview
     id="base"
     pagecolor="#ffffff"
     bordercolor="#666666"
     borderopacity="1.0"
     inkscape:pageopacity="0.0"
     inkscape:pageshadow="2"
     inkscape:zoom="1.1867187"
     inkscape:cx="20.525124"
     inkscape:cy="89.469924"
     inkscape:document-units="mm"
     inkscape:current-layer="layer1"
     showgrid="false"
     fit-margin-top="0"
     fit-margin-left="0"
     fit-margin-right="0"
     fit-margin-bottom="0"
     inkscape:window-width="1920"
     inkscape:window-height="1017"
     inkscape:window-x="-8"
     inkscape:window-y="-8"
     inkscape:window-maximized="1" />
  <metadata
     id="metadata1724">
    <rdf:RDF>
      <cc:Work
         rdf:about="">
        <dc:format>image/svg+xml</dc:format>
        <dc:type
           rdf:resource="http://purl.org/dc/dcmitype/StillImage" />
        <dc:title></dc:title>
      </cc:Work>
    </rdf:RDF>
  </metadata>
  <g
     inkscape:label="Layer 1"
     inkscape:groupmode="layer"
     id="layer1"
     transform="translate(-38.42131,-89.511407)">
    <path
       inkscape:connector-curvature="0"
       style="fill:#f9f9f9;fill-opacity:1;stroke-width:0.13464352"
       d="m 72.905596,89.511527 c -8.799832,0 -17.599397,0.0697 -18.445905,0.209288 -8.185811,1.34982 -14.47972,7.643211 -15.829545,15.829005 -0.279161,1.69302 -0.279161,35.1993 0,36.89233 1.339586,8.12361 7.595341,14.42791 15.69466,15.8166 1.552681,0.26617 35.419214,0.27755 37.027194,0.0124 5.77271,-0.95192 10.67229,-4.35593 13.58729,-9.43974 1.10379,-1.92504 1.86187,-4.08562 2.24173,-6.38928 0.27916,-1.69303 0.27916,-35.1993 0,-36.89232 C 106.2291,99.777126 102.82508,94.877525 97.74127,91.962526 95.81624,90.858724 93.65568,90.100672 91.352,89.720802 90.50549,89.581218 81.7054,89.511513 72.905596,89.511513 Z m -7.031117,15.816603 c 0.147187,0 0.53295,0.57972 0.864552,1.29915 0.592297,1.28498 0.605235,1.29788 1.193721,1.16633 0.780468,-0.17445 9.188288,-0.17239 9.972018,0.002 0.59909,0.13364 0.61473,0.11998 1.20663,-1.09399 0.32972,-0.67625 0.70974,-1.27176 0.84439,-1.32343 0.58494,-0.22445 5.93915,1.27132 8.65788,2.41897 1.29892,0.54832 1.49278,0.70216 2.17712,1.72548 1.51617,2.26717 4.07376,7.4392 4.66794,9.43922 1.62957,5.48519 1.90944,7.15729 2.02676,12.11657 0.0546,2.30917 0.023,4.48729 -0.0698,4.84001 -0.13946,0.52912 -0.46307,0.83907 -1.84951,1.7725 -2.06756,1.39204 -5.65283,3.19447 -8.35658,4.20078 -1.1172,0.4158 -2.12516,0.75603 -2.23967,0.75603 -0.1951,0 -2.37493,-3.26721 -2.63652,-3.9517 -0.0962,-0.25182 0.26612,-0.4962 1.85415,-1.24902 1.08574,-0.51469 1.97403,-1.02619 1.97403,-1.13688 0,-0.11068 -0.19267,-0.28946 -0.42839,-0.39687 -0.33946,-0.15466 -0.69837,-0.092 -1.72601,0.30023 -7.34298,2.80268 -14.479136,2.86434 -21.616247,0.18707 -1.609619,-0.6038 -1.90201,-0.66189 -2.286158,-0.4563 -0.242227,0.12963 -0.440294,0.29796 -0.440294,0.37414 0,0.15898 3.389313,1.85105 3.707792,1.85105 0.464238,0 0.143351,0.73393 -1.326012,3.03186 -0.943584,1.47566 -1.010365,1.52225 -1.822106,1.26865 -2.785772,-0.87038 -7.474162,-3.15567 -10.105338,-4.9258 l -1.615413,-1.08675 -0.134858,-2.15388 c -0.519748,-8.31811 1.889813,-17.30232 6.587701,-24.56284 0.93099,-1.43885 1.303629,-1.66431 4.658122,-2.81843 1.742678,-0.59957 5.648618,-1.59422 6.26007,-1.59422 z m -1.050053,15.6745 c -1.614858,0 -2.85414,0.7862 -3.823547,2.42569 -0.433308,0.73285 -0.496464,1.04141 -0.495062,2.42569 0.0026,1.73603 0.192881,2.26361 1.259866,3.47886 1.284235,1.46264 3.242682,1.78276 4.942868,0.8077 1.995699,-1.14453 2.946533,-3.76129 2.182284,-6.00428 -0.613093,-1.79928 -2.344659,-3.13366 -4.066409,-3.13366 z m 16.298754,0 c -3.92845,0 -5.85655,5.45546 -2.96108,8.3783 1.35102,1.36376 3.10787,1.68007 4.75993,0.85679 1.16666,-0.58136 2.01965,-1.72206 2.40141,-3.21221 0.78672,-3.07084 -1.27214,-6.02288 -4.20026,-6.02288 z"
       id="path1689" />
  </g>
</svg>
