<?xml version="1.0" encoding="UTF-8" standalone="no"?>
<!-- Created with Inkscape (http://www.inkscape.org/) -->

<svg
   xmlns:dc="http://purl.org/dc/elements/1.1/"
   xmlns:cc="http://creativecommons.org/ns#"
   xmlns:rdf="http://www.w3.org/1999/02/22-rdf-syntax-ns#"
   xmlns:svg="http://www.w3.org/2000/svg"
   xmlns="http://www.w3.org/2000/svg"
   xmlns:sodipodi="http://sodipodi.sourceforge.net/DTD/sodipodi-0.dtd"
   xmlns:inkscape="http://www.inkscape.org/namespaces/inkscape"
   width="68.969101mm"
   height="68.953049mm"
   viewBox="0 0 68.969101 68.953049"
   version="1.1"
   id="svg1727"
   inkscape:version="0.92.5 (2060ec1f9f, 2020-04-08)"
   sodipodi:docname="instagram.svg">
  <defs
     id="defs1721" />
  <sodipodi:namedview
     id="base"
     pagecolor="#ffffff"
     bordercolor="#666666"
     borderopacity="1.0"
     inkscape:pageopacity="0.0"
     inkscape:pageshadow="2"
     inkscape:zoom="2.011859"
     inkscape:cx="407.74537"
     inkscape:cy="108.57854"
     inkscape:document-units="mm"
     inkscape:current-layer="layer1"
     showgrid="false"
     fit-margin-top="0"
     fit-margin-left="0"
     fit-margin-right="0"
     fit-margin-bottom="0"
     inkscape:window-width="1920"
     inkscape:window-height="1017"
     inkscape:window-x="-8"
     inkscape:window-y="-8"
     inkscape:window-maximized="1" />
  <metadata
     id="metadata1724">
    <rdf:RDF>
      <cc:Work
         rdf:about="">
        <dc:format>image/svg+xml</dc:format>
        <dc:type
           rdf:resource="http://purl.org/dc/dcmitype/StillImage" />
        <dc:title />
      </cc:Work>
    </rdf:RDF>
  </metadata>
  <g
     inkscape:label="Layer 1"
     inkscape:groupmode="layer"
     id="layer1"
     transform="translate(-38.42131,-89.511407)">
    <path
       inkscape:connector-curvature="0"
       style="fill:#f9f9f9;fill-opacity:1;stroke-width:0.13464352"
       d="m 72.905596,89.511407 c -8.799821,0 -17.599386,0.0697 -18.445899,0.209291 -8.185791,1.34982 -14.479188,7.643207 -15.829008,15.829012 -0.279172,1.69302 -0.279172,35.19929 0,36.89232 1.33957,8.12361 7.594801,14.42791 15.694131,15.8166 1.552681,0.26617 35.419227,0.27808 37.027195,0.013 5.772693,-0.95189 10.672275,-4.35591 13.587285,-9.43972 1.10379,-1.92504 1.86185,-4.08613 2.24173,-6.38979 0.27917,-1.69303 0.27917,-35.1993 0,-36.89233 -0.95191,-5.772671 -4.35594,-10.672275 -9.43974,-13.587277 -1.925039,-1.103799 -4.0856,-1.861852 -6.389275,-2.241722 C 90.505508,89.581165 81.705424,89.51146 72.905596,89.51146 Z m -0.0083,9.475391 c 6.224212,0 12.448397,0.05312 13.157854,0.159681 6.089687,0.914651 10.776111,5.601061 11.69076,11.690761 0.213111,1.41891 0.213111,24.89679 0,26.3157 -0.914649,6.08969 -5.601073,10.77559 -11.69076,11.69025 -1.308952,0.1966 -25.148012,0.19383 -26.385469,-0.005 v 0.002 c -5.403109,-0.85985 -9.713671,-4.6473 -11.225109,-9.86294 -0.543333,-1.87493 -0.538986,-1.74846 -0.538986,-14.98203 0,-10.22848 0.02363,-12.35862 0.143661,-13.15785 0.91466,-6.0897 5.60055,-10.77611 11.690245,-11.690759 0.709456,-0.106566 6.93364,-0.159681 13.157849,-0.159681 z m -12.837457,4.555792 -0.770496,0.22324 c -3.263249,0.94518 -5.689354,3.36793 -6.619751,6.61046 l -0.224274,0.78134 v 12.83746 12.83746 l 0.223242,0.7705 c 0.459095,1.58507 1.182677,2.85592 2.292882,4.02662 1.344496,1.41772 3.248806,2.44505 5.130954,2.76779 0.250703,0.0429 6.14465,0.071 13.097908,0.0625 l 12.642122,-0.0155 0.726054,-0.22376 c 3.285392,-1.01193 5.628134,-3.37254 6.568075,-6.61768 l 0.223242,-0.7705 V 123.99509 111.15763 L 93.1266,110.38662 c -0.945211,-3.26334 -3.357449,-5.67559 -6.620785,-6.62079 l -0.771012,-0.22324 H 72.897341 Z m 26.134839,3.84473 c 0.735261,-0.006 1.056415,0.0646 1.639175,0.35863 0.771208,0.38914 1.345362,1.11624 1.615922,2.04691 0.436941,1.50305 -0.477382,3.2919 -1.967323,3.84938 -0.695761,0.26031 -1.665253,0.2588 -2.347142,-0.005 v 0.002 c -1.425956,-0.54839 -2.332429,-2.24358 -1.986442,-3.71502 0.16464,-0.70017 0.329259,-1.00449 0.840775,-1.55133 0.57808,-0.61802 1.38657,-0.97887 2.205035,-0.98495 z m -13.297337,3.73259 c 1.540095,0 3.080224,0.27255 4.529442,0.81804 3.860758,1.45319 6.89497,4.81203 7.928713,8.77672 1.663089,6.37841 -1.76983,13.01886 -7.928713,15.33705 -1.992418,0.74993 -4.403037,1.00617 -6.432682,0.68316 -6.345842,-1.00991 -10.979175,-6.38633 -10.979175,-12.73979 0,-5.32452 3.36251,-10.17873 8.352976,-12.05714 1.449218,-0.54549 2.989347,-0.81804 4.529439,-0.81804 z m 0,4.53822 c -1.54977,0 -1.645534,0.0124 -2.537828,0.31006 -2.63975,0.88238 -4.606686,2.84881 -5.489071,5.48855 -0.298262,0.89231 -0.310057,0.98857 -0.310057,2.53835 0,1.54976 0.0118,1.64553 0.310057,2.53783 0.859263,2.5706 2.852075,4.60514 5.313888,5.42499 1.111853,0.37028 1.542124,0.42606 3.006019,0.38964 1.154303,-0.0286 1.433052,-0.0703 2.245339,-0.33434 2.616581,-0.85075 4.604628,-2.83593 5.488553,-5.48029 0.298268,-0.8923 0.31006,-0.98807 0.31006,-2.53783 0,-1.54978 -0.01185,-1.64604 -0.31006,-2.53835 -0.88238,-2.63974 -2.848806,-4.60617 -5.488553,-5.48855 -0.892292,-0.29827 -0.988571,-0.31006 -2.538347,-0.31006 z"
       id="path1693" />
  </g>
</svg>
