<?xml version="1.0" encoding="UTF-8" standalone="no"?>
<!-- Created with Inkscape (http://www.inkscape.org/) -->

<svg
   xmlns:dc="http://purl.org/dc/elements/1.1/"
   xmlns:cc="http://creativecommons.org/ns#"
   xmlns:rdf="http://www.w3.org/1999/02/22-rdf-syntax-ns#"
   xmlns:svg="http://www.w3.org/2000/svg"
   xmlns="http://www.w3.org/2000/svg"
   xmlns:sodipodi="http://sodipodi.sourceforge.net/DTD/sodipodi-0.dtd"
   xmlns:inkscape="http://www.inkscape.org/namespaces/inkscape"
   width="68.969101mm"
   height="68.953049mm"
   viewBox="0 0 68.969101 68.953049"
   version="1.1"
   id="svg1727"
   sodipodi:docname="line.svg"
   inkscape:version="0.92.5 (2060ec1f9f, 2020-04-08)">
  <defs
     id="defs1721" />
  <sodipodi:namedview
     id="base"
     pagecolor="#ffffff"
     bordercolor="#666666"
     borderopacity="1.0"
     inkscape:pageopacity="0.0"
     inkscape:pageshadow="2"
     inkscape:zoom="1.1867187"
     inkscape:cx="20.525124"
     inkscape:cy="89.469924"
     inkscape:document-units="mm"
     inkscape:current-layer="layer1"
     showgrid="false"
     fit-margin-top="0"
     fit-margin-left="0"
     fit-margin-right="0"
     fit-margin-bottom="0"
     inkscape:window-width="1920"
     inkscape:window-height="1017"
     inkscape:window-x="-8"
     inkscape:window-y="-8"
     inkscape:window-maximized="1" />
  <metadata
     id="metadata1724">
    <rdf:RDF>
      <cc:Work
         rdf:about="">
        <dc:format>image/svg+xml</dc:format>
        <dc:type
           rdf:resource="http://purl.org/dc/dcmitype/StillImage" />
        <dc:title></dc:title>
      </cc:Work>
    </rdf:RDF>
  </metadata>
  <g
     inkscape:label="Layer 1"
     inkscape:groupmode="layer"
     id="layer1"
     transform="translate(-38.42131,-89.511407)">
    <path
       inkscape:connector-curvature="0"
       style="fill:#f9f9f9;fill-opacity:1;stroke-width:0.13464352"
       d="m 72.905596,89.51146 c -8.799812,0 -17.599893,0.0697 -18.446409,0.209291 -8.18579,1.349819 -14.479188,7.643206 -15.829008,15.829009 -0.279169,1.69302 -0.279169,35.19929 0,36.89232 1.33957,8.12361 7.59532,14.42791 15.69465,15.8166 1.55268,0.26617 35.418718,0.27808 37.026671,0.013 5.772707,-0.9519 10.67229,-4.35592 13.58731,-9.43973 1.10379,-1.92504 1.86185,-4.08613 2.24171,-6.38979 0.27919,-1.69303 0.27919,-35.1993 0,-36.89232 -0.95189,-5.772678 -4.35594,-10.672283 -9.439733,-13.587284 -1.92505,-1.1038 -4.085613,-1.861852 -6.389287,-2.241722 -0.846508,-0.139617 -9.646074,-0.209321 -18.445904,-0.209321 z m -0.26199,13.20436 c 1.201076,-0.0111 2.408793,0.0282 3.250459,0.12144 6.958991,0.77071 13.231865,4.29112 16.614484,9.32449 1.240398,1.84576 2.096138,3.91123 2.466528,5.9521 0.27659,1.52417 0.24701,3.92582 -0.0667,5.4131 -0.90583,4.29432 -3.355264,7.73714 -8.656323,12.1667 -4.094639,3.42147 -9.615276,7.15831 -13.242078,8.96328 -1.105879,0.55036 -1.517333,0.6796 -1.808681,0.56844 -0.64892,-0.24761 -0.725758,-0.8043 -0.287838,-2.09186 0.34667,-1.01922 0.630968,-2.4679 0.630968,-3.21531 0,-0.41222 -0.06691,-0.63094 -0.263033,-0.85886 -0.241541,-0.28079 -0.394568,-0.32288 -1.863968,-0.51005 -2.999121,-0.38205 -5.502678,-1.1227 -8.116817,-2.4014 -5.626672,-2.75226 -9.280319,-7.12968 -10.442258,-12.51138 -0.31029,-1.43725 -0.274544,-4.68807 0.0677,-6.13865 1.794309,-7.60489 9.07166,-13.34692 18.505329,-14.60117 0.816435,-0.10855 2.011143,-0.16977 3.212206,-0.18087 z m 8.725059,12.31449 -0.333825,0.37362 -0.333852,0.37362 v 4.81418 4.81418 l 0.334354,0.33486 0.334857,0.33435 h 2.649987 2.649961 l 0.334857,-0.33435 c 0.365654,-0.36565 0.432435,-0.81337 0.197935,-1.32808 -0.243973,-0.53544 -0.605473,-0.62632 -2.490312,-0.62632 h -1.722358 v -1.03043 -1.02991 h 1.711511 c 1.083151,0 1.821841,-0.0504 2.011759,-0.13694 0.328057,-0.14947 0.626322,-0.6293 0.626322,-1.00769 0,-0.38466 -0.32983,-0.91626 -0.642329,-1.03508 -0.158459,-0.0603 -1.057619,-0.10956 -1.997816,-0.10956 h -1.709447 v -1.02216 -1.02164 l 0.601001,-0.0692 c 0.330491,-0.038 1.157976,-0.0545 1.839146,-0.0367 l 1.238699,0.032 0.335386,-0.37362 c 0.452755,-0.50477 0.453231,-1.03574 0,-1.54151 l -0.333851,-0.37362 h -2.651495 z m -21.704627,0.0367 c -0.54959,-0.0304 -1.102325,0.36645 -1.207677,1.02526 -0.0379,0.23678 -0.05699,2.42988 -0.04289,4.87309 l 0.02582,4.44211 0.37362,0.33383 0.373621,0.33383 h 2.52181 c 1.95888,0 2.592562,-0.0361 2.837553,-0.16278 0.67717,-0.35018 0.771198,-1.16564 0.199988,-1.73685 l -0.389123,-0.38912 h -1.842783 -1.84278 v -4.04782 -4.04781 l -0.301792,-0.30179 c -0.206076,-0.20608 -0.455568,-0.30811 -0.705382,-0.32195 z m 18.253666,0.003 c -0.331338,0.0137 -0.658786,0.16366 -0.880057,0.44493 -0.214207,0.27234 -0.227886,0.46632 -0.227886,3.16157 0,2.80422 -0.005,2.86576 -0.21291,2.64531 -0.117157,-0.12417 -1.142285,-1.4877 -2.277904,-3.0303 -1.135618,-1.5426 -2.169662,-2.89967 -2.298038,-3.01584 -0.262731,-0.23777 -0.894646,-0.27895 -1.262457,-0.0822 -0.569849,0.30497 -0.58756,0.46565 -0.58756,5.39295 0,4.08703 0.02114,4.63071 0.191201,4.91856 0.387292,0.65563 1.230987,0.76838 1.763723,0.23565 l 0.334354,-0.33435 v -2.87993 c 0,-1.76973 0.04218,-2.86514 0.109035,-2.84169 0.0598,0.021 1.089025,1.37702 2.287693,3.01377 1.198669,1.63676 2.321798,3.06621 2.495471,3.17604 0.640715,0.40521 1.428697,0.12894 1.634014,-0.57258 0.08448,-0.28863 0.114088,-1.92866 0.09043,-5.02346 -0.03331,-4.34221 -0.04728,-4.60824 -0.254767,-4.83744 -0.23749,-0.26227 -0.573008,-0.38476 -0.904346,-0.37103 z m -10.563177,0.005 c -0.278456,-0.004 -0.55327,0.0939 -0.75551,0.2961 -0.282882,0.28288 -0.283631,0.29315 -0.3483,3.11919 -0.0357,1.55935 -0.05703,3.75333 -0.04703,4.87567 l 0.0186,2.0407 0.37362,0.33435 c 0.510689,0.45684 1.066462,0.457 1.523421,0 h 5.29e-4 l 0.334346,-0.33435 v -4.8519 -4.8519 l -0.32091,-0.30747 c -0.21789,-0.20876 -0.500309,-0.31608 -0.778762,-0.32039 z"
       id="path1687" />
  </g>
</svg>
