<?xml version="1.0" encoding="UTF-8" standalone="no"?>
<!-- Created with Inkscape (http://www.inkscape.org/) -->

<svg
   xmlns:dc="http://purl.org/dc/elements/1.1/"
   xmlns:cc="http://creativecommons.org/ns#"
   xmlns:rdf="http://www.w3.org/1999/02/22-rdf-syntax-ns#"
   xmlns:svg="http://www.w3.org/2000/svg"
   xmlns="http://www.w3.org/2000/svg"
   xmlns:sodipodi="http://sodipodi.sourceforge.net/DTD/sodipodi-0.dtd"
   xmlns:inkscape="http://www.inkscape.org/namespaces/inkscape"
   width="68.969101mm"
   height="68.953049mm"
   viewBox="0 0 68.969101 68.953049"
   version="1.1"
   id="svg1727"
   sodipodi:docname="linkedin.svg"
   inkscape:version="0.92.5 (2060ec1f9f, 2020-04-08)">
  <defs
     id="defs1721" />
  <sodipodi:namedview
     id="base"
     pagecolor="#ffffff"
     bordercolor="#666666"
     borderopacity="1.0"
     inkscape:pageopacity="0.0"
     inkscape:pageshadow="2"
     inkscape:zoom="1.1867187"
     inkscape:cx="20.525124"
     inkscape:cy="89.469924"
     inkscape:document-units="mm"
     inkscape:current-layer="layer1"
     showgrid="false"
     fit-margin-top="0"
     fit-margin-left="0"
     fit-margin-right="0"
     fit-margin-bottom="0"
     inkscape:window-width="1920"
     inkscape:window-height="1017"
     inkscape:window-x="-8"
     inkscape:window-y="-8"
     inkscape:window-maximized="1" />
  <metadata
     id="metadata1724">
    <rdf:RDF>
      <cc:Work
         rdf:about="">
        <dc:format>image/svg+xml</dc:format>
        <dc:type
           rdf:resource="http://purl.org/dc/dcmitype/StillImage" />
        <dc:title></dc:title>
      </cc:Work>
    </rdf:RDF>
  </metadata>
  <g
     inkscape:label="Layer 1"
     inkscape:groupmode="layer"
     id="layer1"
     transform="translate(-38.42131,-89.511407)">
    <path
       inkscape:connector-curvature="0"
       style="fill:#f9f9f9;fill-opacity:1;stroke-width:0.13464352"
       d="m 72.905596,89.511407 c -8.799823,0 -17.599904,0.0697 -18.44642,0.209291 -8.18579,1.349819 -14.479188,7.643206 -15.829008,15.829012 -0.279169,1.69302 -0.279169,35.19929 0,36.89232 1.33957,8.12361 7.594804,14.42791 15.694134,15.8166 1.552678,0.26617 35.419226,0.27808 37.027197,0.013 5.77269,-0.9519 10.672271,-4.35592 13.587281,-9.43973 1.10379,-1.92504 1.86186,-4.08613 2.24173,-6.38979 0.27918,-1.69303 0.27918,-35.1993 0,-36.89232 -0.9519,-5.772681 -4.35594,-10.672285 -9.439736,-13.587287 -1.925042,-1.1038 -4.085606,-1.861852 -6.389275,-2.241722 C 90.504989,89.581164 81.70542,89.51146 72.905596,89.51146 Z M 56.249249,102.12717 c 0.287745,-0.002 0.575736,0.01 0.759127,0.0351 0.261159,0.0364 0.587237,0.10568 0.832506,0.17674 0.613251,0.17766 1.286859,0.53305 1.803508,0.95188 0.745869,0.60465 1.353304,1.4893 1.666566,2.42621 0.399499,1.19489 0.365961,2.51749 -0.09302,3.66954 -0.179779,0.45124 -0.494517,0.99003 -0.806667,1.38079 -0.172432,0.21585 -0.563353,0.60486 -0.785482,0.78187 -0.830712,0.66197 -1.805336,1.05574 -2.854608,1.1529 -0.193439,0.0179 -0.811654,0.0215 -0.985985,0.006 v 5.3e-4 c -1.213552,-0.10864 -2.342883,-0.62709 -3.212725,-1.47485 -0.851439,-0.82981 -1.35713,-1.82315 -1.540991,-3.02669 -0.0344,-0.22504 -0.04252,-0.36131 -0.04392,-0.7493 -0.0021,-0.52051 0.01619,-0.71464 0.104902,-1.15291 0.204862,-1.0121 0.699156,-1.93322 1.428337,-2.6603 0.405429,-0.40426 0.85297,-0.724 1.367359,-0.97668 0.5119,-0.25144 1.005684,-0.40366 1.603002,-0.49506 0.183065,-0.028 0.470347,-0.0436 0.758095,-0.0455 z m 27.949197,13.75524 c 0.391877,0 0.783733,0.007 0.967383,0.0222 1.75182,0.142 3.305892,0.5313 4.493784,1.12603 0.33088,0.16566 0.492323,0.26043 0.855244,0.50023 1.383081,0.91387 2.426648,2.24589 3.109889,3.9703 0.49298,1.24422 0.856253,2.78713 0.976683,4.14703 0.0505,0.56989 0.1416,2.49448 0.194821,4.11603 0.0362,1.10384 0.03529,15.91363 -0.0011,15.97732 -0.0556,0.0976 0.163815,0.0926 -4.545975,0.10025 -4.176498,0.007 -4.403627,0.005 -4.467426,-0.0264 -0.037,-0.0184 -0.08397,-0.0614 -0.104386,-0.0951 -0.0366,-0.0605 -0.03756,-0.16553 -0.04806,-8.22688 -0.008,-6.17602 -0.01619,-8.22804 -0.03359,-8.42171 -0.0902,-1.00314 -0.235005,-1.69039 -0.510045,-2.41846 -0.257561,-0.6818 -0.57059,-1.18169 -1.004591,-1.60455 -0.415229,-0.40456 -0.837062,-0.65692 -1.406631,-0.84078 -0.450821,-0.14553 -0.888862,-0.21141 -1.539441,-0.23151 -1.44335,-0.0446 -2.651011,0.30195 -3.527952,1.01183 -0.208168,0.16852 -0.540766,0.51725 -0.707966,0.74207 -0.573929,0.77175 -0.960803,1.85492 -1.139981,3.19412 -0.0475,0.35507 -0.07164,0.61122 -0.109038,1.14308 -0.015,0.21286 -0.02466,2.59579 -0.03256,7.97936 l -0.01138,7.6755 -0.04599,0.0491 c -0.02511,0.0268 -0.07217,0.0525 -0.104389,0.0574 -0.09909,0.0149 -8.72137,0.025 -8.787577,0.0103 -0.08615,-0.0195 -0.150728,-0.0663 -0.18965,-0.13746 -0.0321,-0.0587 -0.03359,-0.71898 -0.03359,-14.46785 0,-13.95892 0.0011,-14.40801 0.03514,-14.47612 0.02339,-0.0471 0.06106,-0.0831 0.114721,-0.10903 0.0799,-0.0387 0.08903,-0.0388 4.258654,-0.0388 4.591621,0 4.258341,-0.008 4.33927,0.11058 0.0324,0.0477 0.03493,0.15669 0.04393,1.91617 l 0.0088,1.86552 0.147796,-0.21911 c 0.476128,-0.70595 1.079061,-1.39948 1.663981,-1.91461 1.077219,-0.9487 2.311918,-1.63294 3.670059,-2.03347 0.753451,-0.22221 1.482944,-0.34767 2.503723,-0.43047 0.18357,-0.0149 0.575506,-0.0222 0.967383,-0.0222 z m -27.963667,0.73225 c 4.379079,-0.005 4.422883,-0.005 4.499983,0.0326 0.0428,0.0207 0.09466,0.0656 0.115239,0.0997 0.0373,0.0617 0.03769,0.15309 0.04289,14.43013 0.004,10.39891 -2.65e-4,14.39213 -0.0155,14.4539 -0.02281,0.0935 -0.07736,0.16344 -0.150894,0.1943 -0.0517,0.0217 -8.713542,0.0333 -8.818584,0.0119 h -5.32e-4 c -0.0863,-0.0177 -0.152906,-0.0692 -0.182936,-0.14107 -0.0232,-0.0555 -0.0264,-2.07186 -0.02222,-14.51798 l 0.0047,-14.45338 0.05271,-0.0527 0.05271,-0.0527 z"
       id="path1642" />
  </g>
</svg>
