<?xml version="1.0" encoding="UTF-8" standalone="no"?>
<!-- Created with Inkscape (http://www.inkscape.org/) -->

<svg
   xmlns:dc="http://purl.org/dc/elements/1.1/"
   xmlns:cc="http://creativecommons.org/ns#"
   xmlns:rdf="http://www.w3.org/1999/02/22-rdf-syntax-ns#"
   xmlns:svg="http://www.w3.org/2000/svg"
   xmlns="http://www.w3.org/2000/svg"
   xmlns:sodipodi="http://sodipodi.sourceforge.net/DTD/sodipodi-0.dtd"
   xmlns:inkscape="http://www.inkscape.org/namespaces/inkscape"
   width="113.65975mm"
   height="113.65828mm"
   viewBox="0 0 113.65975 113.65828"
   version="1.1"
   id="svg2339"
   inkscape:version="0.92.5 (2060ec1f9f, 2020-04-08)"
   sodipodi:docname="logo_hexagon.png.svg">
  <defs
     id="defs2333" />
  <sodipodi:namedview
     id="base"
     pagecolor="#ffffff"
     bordercolor="#666666"
     borderopacity="1.0"
     inkscape:pageopacity="0.0"
     inkscape:pageshadow="2"
     inkscape:zoom="1.1867187"
     inkscape:cx="107.88868"
     inkscape:cy="177.97699"
     inkscape:document-units="mm"
     inkscape:current-layer="layer1"
     showgrid="false"
     fit-margin-top="0"
     fit-margin-left="0"
     fit-margin-right="0"
     fit-margin-bottom="0"
     inkscape:window-width="1920"
     inkscape:window-height="1017"
     inkscape:window-x="-8"
     inkscape:window-y="-8"
     inkscape:window-maximized="1" />
  <metadata
     id="metadata2336">
    <rdf:RDF>
      <cc:Work
         rdf:about="">
        <dc:format>image/svg+xml</dc:format>
        <dc:type
           rdf:resource="http://purl.org/dc/dcmitype/StillImage" />
        <dc:title></dc:title>
      </cc:Work>
    </rdf:RDF>
  </metadata>
  <g
     inkscape:label="Layer 1"
     inkscape:groupmode="layer"
     id="layer1"
     transform="translate(-53.239245,-55.40772)">
    <path
       style="fill:#f89406;fill-opacity:1;stroke-width:0.12828283"
       d="m 114.5115,156.20595 c -4.08171,-7.07319 -7.42313,-12.97581 -7.42538,-13.11692 -0.002,-0.14111 3.34408,-6.01505 7.4363,-13.05321 l 7.44041,-12.79664 14.98778,0.0325 14.98778,0.0325 7.48031,12.92936 7.4803,12.92936 -2.55363,4.38882 c -1.4045,2.41386 -4.78991,8.24071 -7.52314,12.94855 l -4.9695,8.55973 -14.95997,0.003 -14.95999,0.003 z M 67.462568,137.09181 c -1.852756,-3.16786 -14.191719,-24.58908 -14.223236,-24.69245 -0.01985,-0.0651 3.340945,-5.92922 7.468445,-13.031327 l 7.504545,-12.91294 14.948622,-0.001 14.948622,-0.001 7.436734,12.86036 c 4.0902,7.073187 7.43524,12.975807 7.43343,13.116917 -0.002,0.14111 -3.35,6.01366 -7.44041,13.05012 l -7.437098,12.79355 -14.972824,0.003 -14.972823,0.003 z m 54.213562,-30.01765 c -0.27906,-0.35472 -14.82929,-25.674257 -14.82925,-25.805067 2e-5,-0.0774 3.3665,-5.92782 7.48105,-13.00102 l 7.481,-12.860353 14.95776,0.0022 14.95776,0.0022 7.42402,12.840173 c 4.08321,7.0621 7.44449,12.93488 7.4695,13.05062 0.025,0.11574 -3.31875,5.98316 -7.43058,13.03872 l -7.47606,12.828277 -14.95432,0.0326 c -11.86811,0.0259 -14.98043,-6.4e-4 -15.08088,-0.12828 z"
       id="path2895"
       inkscape:connector-curvature="0" />
  </g>
</svg>
